<svg xmlns="http://www.w3.org/2000/svg" viewBox="0 0 512 512" width="512" height="512">
  <defs>
    <linearGradient id="grad" x1="0%" y1="0%" x2="100%" y2="100%">
      <stop offset="0%" style="stop-color:#a855f7;stop-opacity:1" />
      <stop offset="100%" style="stop-color:#6366f1;stop-opacity:1" />
    </linearGradient>
    <filter id="shadow" x="-10%" y="-10%" width="120%" height="120%">
      <feDropShadow dx="0" dy="8" stdDeviation="8" flood-color="#000" flood-opacity="0.15" />
    </filter>
  </defs>
  <rect width="512" height="512" rx="128" fill="url(#grad)" />
  <g filter="url(#shadow)">
    <!-- Heart shape -->
    <path d="M256,410 C256,410 120,310 120,200 C120,130 170,90 230,90 C260,90 280,110 290,120 C300,110 320,90 350,90 C410,90 460,130 460,200 C460,310 326,410 326,410 L256,410 Z" fill="#ffffff" transform="scale(0.8) translate(64, 45)" />
    <!-- Happy Face inside heart or sparkles around -->
    <circle cx="215" cy="180" r="14" fill="#6366f1" />
    <circle cx="295" cy="180" r="14" fill="#6366f1" />
    <path d="M225,220 Q255,250 285,220" stroke="#6366f1" stroke-width="12" stroke-linecap="round" fill="none" />
  </g>
</svg>
